<?xml version="1.0" encoding="UTF-8"?>
<svg id="Layer_1" data-name="Layer 1" xmlns="http://www.w3.org/2000/svg" version="1.1" xmlns:xlink="http://www.w3.org/1999/xlink" viewBox="0 0 116.3 91.7">
  <defs>
    <style>
      .cls-1 {
        fill: url(#linear-gradient);
      }

      .cls-1, .cls-2, .cls-3, .cls-4 {
        stroke-width: 0px;
      }

      .cls-2 {
        fill: url(#linear-gradient-2);
      }

      .cls-3 {
        fill: url(#linear-gradient-3);
      }

      .cls-4 {
        fill: url(#linear-gradient-4);
      }
    </style>
    <linearGradient id="linear-gradient" x1="89.1" y1="24.6" x2="28.6" y2="24.6" gradientUnits="userSpaceOnUse">
      <stop offset="0" stop-color="#8e2a8c"/>
      <stop offset="1" stop-color="#2e368f"/>
    </linearGradient>
    <linearGradient id="linear-gradient-2" x1="36" y1="40.2" x2="104.2" y2="40.2" gradientUnits="userSpaceOnUse">
      <stop offset="0" stop-color="#f27124"/>
      <stop offset=".4" stop-color="#e42129"/>
      <stop offset="1" stop-color="#932d5f"/>
    </linearGradient>
    <linearGradient id="linear-gradient-3" x1="92.4" y1="67.1" x2="22.1" y2="67.1" gradientUnits="userSpaceOnUse">
      <stop offset="0" stop-color="#f27124"/>
      <stop offset="0" stop-color="#f27623"/>
      <stop offset=".4" stop-color="#f6a922"/>
      <stop offset=".6" stop-color="#f9ce21"/>
      <stop offset=".9" stop-color="#fbe521"/>
      <stop offset="1" stop-color="#fcee21"/>
    </linearGradient>
    <linearGradient id="linear-gradient-4" x1="12" y1="51.5" x2="80.3" y2="51.5" gradientUnits="userSpaceOnUse">
      <stop offset="0" stop-color="#ccdc2f"/>
      <stop offset="0" stop-color="#c1d637"/>
      <stop offset=".2" stop-color="#91be5b"/>
      <stop offset=".3" stop-color="#69a97a"/>
      <stop offset=".4" stop-color="#479893"/>
      <stop offset=".6" stop-color="#2d8ba7"/>
      <stop offset=".7" stop-color="#1b82b4"/>
      <stop offset=".8" stop-color="#107cbd"/>
      <stop offset="1" stop-color="#0d7bc0"/>
    </linearGradient>
  </defs>
  <path class="cls-1" d="M91.4,25.8c-2.4-8.2-12.2-13-24.6-13.3,5.8,2.5,10.7,5.7,14.1,9.3-7.6-5.2-23.1-8.3-35-6.2-11.9,2.1-22.3,11-27.4,18.6,6.6-6.5,18.7-11.2,32.7-12,18.7-1.1,34.8,5.2,39.3,14.6,1-2.3,1.5-4.7,1.5-7s-.2-2.7-.6-4"/>
  <path class="cls-2" d="M103.6,28.1c-1.9-6.4-8.3-10.8-17-12.5,4.2,2.3,7.2,5.5,8.4,9.5,3.7,12.2-10.4,27.4-31.4,33.8-10,3.1-19.7,3.6-27.6,2,8.6,4.6,22.2,5.3,36.2.9,18.8-5.8,32-18.5,32-29.8s-.2-2.7-.6-4"/>
  <path class="cls-3" d="M65.2,69.5c-18.7,1.1-34.8-5.2-39.3-14.6-1.6,3.7-2,7.4-1,10.9,2.4,8.2,12.2,13,24.7,13.3-5.8-2.5-10.7-5.7-14.1-9.4,7.6,5.3,23.1,8.3,35,6.2,11.9-2.1,22.3-11,27.4-18.6-6.6,6.5-18.7,11.2-32.7,12"/>
  <path class="cls-4" d="M44.1,29.8c-21,6.5-35.1,21.6-31.4,33.8,1.9,6.4,8.3,10.8,17,12.5-4.2-2.3-7.2-5.5-8.4-9.5-3.7-12.2,10.4-27.4,31.4-33.8,10-3.1,19.7-3.6,27.6-2-8.6-4.6-22.2-5.3-36.2-1"/>
</svg>