<?xml version="1.0" encoding="UTF-8"?>
<svg id="Layer_1" data-name="Layer 1" xmlns="http://www.w3.org/2000/svg" version="1.1" xmlns:xlink="http://www.w3.org/1999/xlink" viewBox="0 0 674.7 245.1">
  <defs>
    <style>
      .cls-1 {
        fill: #58595b;
      }

      .cls-1, .cls-2, .cls-3, .cls-4, .cls-5, .cls-6 {
        stroke-width: 0px;
      }

      .cls-2 {
        fill: #f47727;
      }

      .cls-3 {
        fill: url(#linear-gradient);
      }

      .cls-4 {
        fill: url(#linear-gradient-2);
      }

      .cls-5 {
        fill: url(#linear-gradient-3);
      }

      .cls-6 {
        fill: url(#linear-gradient-4);
      }
    </style>
    <linearGradient id="linear-gradient" x1="289.9" y1="88.7" x2="225.5" y2="88.7" gradientUnits="userSpaceOnUse">
      <stop offset="0" stop-color="#8e2a8c"/>
      <stop offset="1" stop-color="#2e368f"/>
    </linearGradient>
    <linearGradient id="linear-gradient-2" x1="233.4" y1="105.3" x2="306" y2="105.3" gradientUnits="userSpaceOnUse">
      <stop offset="0" stop-color="#f27124"/>
      <stop offset=".4" stop-color="#e42129"/>
      <stop offset="1" stop-color="#932d5f"/>
    </linearGradient>
    <linearGradient id="linear-gradient-3" x1="293.5" y1="133.9" x2="218.6" y2="133.9" gradientUnits="userSpaceOnUse">
      <stop offset="0" stop-color="#f27124"/>
      <stop offset="0" stop-color="#f27623"/>
      <stop offset=".4" stop-color="#f6a922"/>
      <stop offset=".6" stop-color="#f9ce21"/>
      <stop offset=".9" stop-color="#fbe521"/>
      <stop offset="1" stop-color="#fcee21"/>
    </linearGradient>
    <linearGradient id="linear-gradient-4" x1="207.9" y1="117.3" x2="280.6" y2="117.3" gradientUnits="userSpaceOnUse">
      <stop offset="0" stop-color="#ccdc2f"/>
      <stop offset="0" stop-color="#c1d637"/>
      <stop offset=".2" stop-color="#91be5b"/>
      <stop offset=".3" stop-color="#69a97a"/>
      <stop offset=".4" stop-color="#479893"/>
      <stop offset=".6" stop-color="#2d8ba7"/>
      <stop offset=".7" stop-color="#1b82b4"/>
      <stop offset=".8" stop-color="#107cbd"/>
      <stop offset="1" stop-color="#0d7bc0"/>
    </linearGradient>
  </defs>
  <g>
    <path class="cls-1" d="M193,91.9c1.1-1.3,2.3-1.9,3.9-1.9s2.6.5,3.6,1.5c1,1,1.5,2.2,1.5,3.6s-.3,2.3-1.1,3.1h-.1c0,.1-25.5,34.9-25.5,34.9-1.3,1.6-2.9,3-4.8,4-1.9,1-4,1.6-6.3,1.6s-4.1-.5-5.9-1.4c-1.9-.9-3.4-2.2-4.7-3.8l-25.5-34.7c-.4-.5-.8-1.1-1.1-1.7-.3-.6-.4-1.3-.4-2,0-1.4.5-2.6,1.5-3.6,1-1,2.2-1.5,3.6-1.5s3,.7,4,2l24.5,33.2c.5.6,1.1,1.2,1.8,1.9.7.7,1.5,1,2.3,1s1.5-.3,2.3-1c.7-.7,1.3-1.3,1.7-1.9l24.7-33.3Z"/>
    <path class="cls-3" d="M292.3,90c-2.6-8.7-13-13.8-26.2-14.2,6.2,2.6,11.4,6.1,15,10-8.1-5.6-24.6-8.8-37.2-6.6-12.7,2.2-23.8,11.7-29.2,19.8,7-6.9,19.9-11.9,34.8-12.8,20-1.2,37.1,5.5,41.8,15.5,1.1-2.5,1.6-5,1.6-7.4s-.2-2.9-.6-4.2"/>
    <path class="cls-4" d="M305.4,92.4c-2-6.8-8.9-11.5-18.1-13.3,4.5,2.4,7.7,5.8,9,10.1,3.9,13-11.1,29.1-33.5,36-10.6,3.3-21,3.8-29.4,2.2,9.1,4.9,23.6,5.6,38.6,1,20-6.1,34.1-19.7,34.1-31.8s-.2-2.9-.6-4.3"/>
    <path class="cls-5" d="M264.4,136.5c-19.9,1.2-37-5.5-41.8-15.5-1.7,3.9-2.1,7.9-1,11.7,2.6,8.7,13,13.8,26.3,14.2-6.2-2.6-11.4-6.1-15.1-10,8.1,5.6,24.5,8.8,37.2,6.6,12.7-2.2,23.8-11.7,29.2-19.8-7,6.9-19.9,11.9-34.8,12.8"/>
    <path class="cls-6" d="M242,94.2c-22.4,6.9-37.4,23-33.5,36,2,6.8,8.9,11.5,18.1,13.3-4.5-2.4-7.7-5.8-9-10.1-3.9-13,11.1-29.2,33.5-36,10.6-3.3,21-3.8,29.4-2.2-9.1-4.9-23.6-5.6-38.6-1"/>
    <path class="cls-1" d="M330.7,134.9c-1,1-2.2,1.5-3.6,1.5s-2.6-.5-3.6-1.5c-1-1-1.5-2.2-1.5-3.6v-36.3c0-1.4.5-2.6,1.5-3.6,1-1,2.2-1.5,3.6-1.5s2.6.5,3.6,1.5c1,1,1.5,2.2,1.5,3.6v36.3c0,1.4-.5,2.6-1.5,3.6"/>
    <path class="cls-1" d="M425.3,99.1c-3.6,3.2-6.9,6-9.9,8.3-3,2.3-5.9,4.2-8.5,5.8,2.7,1.6,5.5,3.5,8.4,5.8,2.9,2.3,6.3,5.1,10,8.3.6.5,1,1.1,1.4,1.8.4.7.6,1.4.6,2.2,0,1.4-.5,2.6-1.5,3.6-1,1-2.2,1.5-3.6,1.5s-2.4-.5-3.6-1.5c-4.5-4-8.2-7.1-11.3-9.3-3-2.2-5.8-3.9-8.2-5-2.4-1.1-4.7-1.7-6.9-2-2.2-.2-4.6-.4-7.4-.4h-2.3c-2.3,0-4.5.3-6.4.6-2,.3-4.1,1-6.4,2.2-2.3,1.2-4.9,2.8-7.8,5-2.9,2.2-6.5,5.2-10.7,8.9-.6.4-1.1.8-1.7,1.1-.6.3-1.2.4-1.9.4-1.4,0-2.6-.5-3.6-1.5-1-1-1.5-2.2-1.5-3.6s.2-1.5.6-2.2c.4-.7.8-1.3,1.4-1.8,3.6-3.2,6.9-5.9,9.9-8.2,3-2.3,5.9-4.2,8.5-5.8-2.7-1.6-5.5-3.5-8.5-5.8-3-2.3-6.3-5.1-9.9-8.4-.6-.5-1-1.1-1.4-1.8-.4-.7-.6-1.5-.6-2.2,0-1.4.5-2.6,1.5-3.6,1-1,2.2-1.5,3.6-1.5s1.3.1,1.9.4c.6.3,1.1.6,1.7,1.1,4.3,3.8,7.9,6.9,10.8,9.1,3,2.2,5.6,3.9,7.9,5,2.4,1.1,4.6,1.8,6.6,2.1,2.1.3,4.3.5,6.8.5h1.6c2.7,0,5.1-.1,7.3-.3,2.1-.2,4.3-.9,6.7-1.9,2.4-1.1,5.1-2.7,8.1-5,3.1-2.2,6.8-5.4,11.4-9.4,1.2-1,2.4-1.5,3.6-1.5s2.6.5,3.6,1.5c1,1,1.5,2.2,1.5,3.6s-.2,1.5-.6,2.2c-.4.7-.8,1.3-1.4,1.8"/>
    <path class="cls-2" d="M546.6,134.9c-1,1-2.2,1.5-3.6,1.5s-2.6-.5-3.6-1.5-1.5-2.2-1.5-3.6v-36.3c0-1.4.5-2.6,1.5-3.6s2.2-1.5,3.6-1.5,2.6.5,3.6,1.5,1.5,2.2,1.5,3.6v36.3c0,1.4-.5,2.6-1.5,3.6Z"/>
    <path class="cls-2" d="M446.2,134.9c-1-1-1.5-2.2-1.5-3.6v-36.3c0-1.4.5-2.6,1.5-3.6,1-1,2.2-1.5,3.6-1.5h63.9c2,0,3.9.4,5.6,1.1,1.7.7,3.3,1.8,4.6,3,1.3,1.3,2.3,2.8,3.1,4.5.7,1.7,1.1,3.6,1.1,5.6s-.3,3.4-.9,5c-.6,1.5-1.4,2.9-2.4,4.1,1,1.2,1.8,2.6,2.4,4.1.6,1.5.9,3.1.9,4.9s-.4,3.8-1.1,5.5-1.8,3.2-3.1,4.5c-1.3,1.3-2.8,2.3-4.6,3-1.7.7-3.6,1.1-5.6,1.1h-63.9c-1.4,0-2.6-.5-3.6-1.5ZM455,100.2v7.9h59.3c1.1,0,2-.4,2.8-1.1.8-.7,1.2-1.6,1.2-2.8s-.4-2-1.2-2.8c-.8-.8-1.8-1.2-2.8-1.2h-59.2ZM455,126.2h59.2c1.1,0,2-.4,2.8-1.2.8-.8,1.2-1.7,1.2-2.8s-.4-2.1-1.2-2.8c-.8-.7-1.8-1.1-2.8-1.1h-59.2v7.9Z"/>
  </g>
  <g>
    <path class="cls-1" d="M172.9,165.5c0,2.1-1.7,3.7-3.7,3.7h-8v-11.7h7.4c1.7,0,3.2,1.4,3.2,3.2s-.2,1.2-.5,1.7c1,.7,1.7,1.8,1.7,3.1ZM163.3,161.7h5.3c.6,0,1.1-.5,1.1-1.1s-.5-1.1-1.1-1.1h-5.3v2.1ZM169.2,167.1c.9,0,1.6-.7,1.6-1.6s-.7-1.6-1.6-1.6h-5.9v3.3h5.9Z"/>
    <path class="cls-1" d="M193.3,157.5v5.9c0,3.2-2.6,5.9-5.9,5.9s-5.9-2.6-5.9-5.9v-5.9h2.1v5.9c0,2.1,1.7,3.8,3.8,3.8s3.8-1.7,3.8-3.8v-5.9h2.1Z"/>
    <path class="cls-1" d="M211.3,160.7h0c0-.7-.5-1.1-1.1-1.1h-4.8c-.6,0-1.1.5-1.1,1.1h0c0,.7.5,1.1,1.1,1.1h4.2c1.1,0,2.1.5,2.7,1.2,0,0,0,.1.1.2.5.6.8,1.5.8,2.3,0,2-1.7,3.7-3.7,3.7h-3.7c-2,0-3.7-1.7-3.7-3.7h2.1c0,.9.7,1.6,1.6,1.6h3.7c.9,0,1.6-.7,1.6-1.6s-.7-1.6-1.6-1.6h-4.2c-.9,0-1.6-.3-2.2-.9-.2-.2-.3-.3-.4-.5-.4-.5-.6-1.1-.6-1.8h0c0-1.8,1.4-3.2,3.2-3.2h4.8c1.7,0,3.2,1.4,3.2,3.2h0c0,0-2.1,0-2.1,0Z"/>
    <path class="cls-1" d="M222.5,169.2v-11.7h2.1v11.7h-2.1Z"/>
    <path class="cls-1" d="M245.4,157.5v11.7l-2.1-1.6-7.5-5.8v7.4h-2.1v-11.7l2.1,1.6,7.5,5.8v-7.5h2.1Z"/>
    <path class="cls-1" d="M256.5,160.7v1.1h7.5v2.1h-7.5v2.2c0,.6.5,1.1,1.1,1.1h8.6v2.1h-8.6c-1.7,0-3.2-1.4-3.2-3.2v-5.4c0-1.7,1.4-3.2,3.2-3.2h8.6v2.1h-8.6c-.6,0-1.1.5-1.1,1.1Z"/>
    <path class="cls-1" d="M284.3,160.7h0c0-.7-.5-1.1-1.1-1.1h-4.8c-.6,0-1.1.5-1.1,1.1h0c0,.7.5,1.1,1.1,1.1h4.2c1.1,0,2.1.5,2.7,1.2,0,0,0,.1.1.2.5.6.8,1.5.8,2.3,0,2-1.7,3.7-3.7,3.7h-3.7c-2,0-3.7-1.7-3.7-3.7h2.1c0,.9.7,1.6,1.6,1.6h3.7c.9,0,1.6-.7,1.6-1.6s-.7-1.6-1.6-1.6h-4.2c-.9,0-1.6-.3-2.2-.9-.2-.2-.3-.3-.4-.5-.4-.5-.6-1.1-.6-1.8h0c0-1.8,1.4-3.2,3.2-3.2h4.8c1.7,0,3.2,1.4,3.2,3.2h0c0,0-2.1,0-2.1,0Z"/>
    <path class="cls-1" d="M304.4,160.7h0c0-.7-.5-1.1-1.1-1.1h-4.8c-.6,0-1.1.5-1.1,1.1h0c0,.7.5,1.1,1.1,1.1h4.2c1.1,0,2.1.5,2.7,1.2,0,0,0,.1.1.2.5.6.8,1.5.8,2.3,0,2-1.7,3.7-3.7,3.7h-3.7c-2,0-3.7-1.7-3.7-3.7h2.1c0,.9.7,1.6,1.6,1.6h3.7c.9,0,1.6-.7,1.6-1.6s-.7-1.6-1.6-1.6h-4.2c-.9,0-1.6-.3-2.2-.9-.2-.2-.3-.3-.4-.5-.4-.5-.6-1.1-.6-1.8h0c0-1.8,1.4-3.2,3.2-3.2h4.8c1.7,0,3.2,1.4,3.2,3.2h0c0,0-2.1,0-2.1,0Z"/>
    <path class="cls-1" d="M331.1,169.2v-11.7h2.1v11.7h-2.1Z"/>
    <path class="cls-1" d="M354,157.5v11.7l-2.1-1.6-7.5-5.8v7.4h-2.1v-11.7l2.1,1.6,7.5,5.8v-7.5h2.1Z"/>
    <path class="cls-1" d="M374.8,157.5v2.1h-4.8v9.6h-2.1v-9.6h-4.8v-2.1h11.7Z"/>
    <path class="cls-1" d="M386,160.7v1.1h7.5v2.1h-7.5v2.2c0,.6.5,1.1,1.1,1.1h8.6v2.1h-8.6c-1.7,0-3.2-1.4-3.2-3.2v-5.4c0-1.7,1.4-3.2,3.2-3.2h8.6v2.1h-8.6c-.6,0-1.1.5-1.1,1.1Z"/>
    <path class="cls-1" d="M414.3,167.2v2.1h-6c-.6,0-1.1-.1-1.6-.4-.7-.4-1.3-1-1.7-1.7-.3-.5-.4-1.1-.4-1.6v-8h2.1v8.2c.1.7.7,1.3,1.4,1.4h6.2Z"/>
    <path class="cls-1" d="M433.1,167.2v2.1h-6c-.6,0-1.1-.1-1.6-.4-.7-.4-1.3-1-1.7-1.7-.3-.5-.4-1.1-.4-1.6v-8h2.1v8.2c.1.7.7,1.3,1.4,1.4h6.2Z"/>
    <path class="cls-1" d="M442.1,169.2v-11.7h2.1v11.7h-2.1Z"/>
    <path class="cls-1" d="M455.4,163.4c0,2.1,1.7,3.8,3.8,3.8h3.8v-2.2h-3.8v-2.1h5.9v6.4h-5.9c-3.2,0-5.9-2.6-5.9-5.9s2.6-5.9,5.9-5.9h5.9v2.1h-5.9c-2.1,0-3.8,1.7-3.8,3.8Z"/>
    <path class="cls-1" d="M476.2,160.7v1.1h7.5v2.1h-7.5v2.2c0,.6.5,1.1,1.1,1.1h8.6v2.1h-8.6c-1.7,0-3.2-1.4-3.2-3.2v-5.4c0-1.7,1.4-3.2,3.2-3.2h8.6v2.1h-8.6c-.6,0-1.1.5-1.1,1.1Z"/>
    <path class="cls-1" d="M506.6,157.5v11.7l-2.1-1.6-7.5-5.8v7.4h-2.1v-11.7l2.1,1.6,7.5,5.8v-7.5h2.1Z"/>
    <path class="cls-1" d="M517.6,163.4c0,2.1,1.7,3.8,3.8,3.8h5.9v2.1h-5.9c-3.2,0-5.9-2.6-5.9-5.9s2.6-5.9,5.9-5.9h5.9v2.1h-5.9c-2.1,0-3.8,1.7-3.8,3.8Z"/>
    <path class="cls-1" d="M538.4,160.7v1.1h7.5v2.1h-7.5v2.2c0,.6.5,1.1,1.1,1.1h8.6v2.1h-8.6c-1.7,0-3.2-1.4-3.2-3.2v-5.4c0-1.7,1.4-3.2,3.2-3.2h8.6v2.1h-8.6c-.6,0-1.1.5-1.1,1.1Z"/>
  </g>
</svg>